<svg
  t="1696402980312"
  class="icon"
  viewBox="0 0 1024 1024"
  version="1.1"
  xmlns="http://www.w3.org/2000/svg"
  p-id="3386"
  width="32"
  height="32"
>
  <path
    d="M533.058435 333.114693L363.544976 447.983516V218.246868L533.058435 333.114693zM363.544976 803.278548V573.530911l169.507465 114.874818L363.544976 803.278548zM55.960351 661.078416c-6.915247 4.778334-11.848429 12.423867-13.716605 21.263235-1.86418 8.838369-0.514498 18.143282 3.762326 25.86574 4.275824 7.725456 11.12114 13.241069 19.032414 15.32903 7.911274 2.084964 16.24014 0.569444 23.151391-4.20789l209.030868-144.36402v291.900941c0 0.269737 0.033967 0.539473 0.037963 0.806212a41.549424 41.549424 0 0 0 0.224781 3.445636c0.513499 4.606501 1.865179 9.044168 3.968125 13.049256 0.126876 0.231774 0.219785 0.473538 0.348659 0.705311 0.078923 0.13287 0.169834 0.247758 0.247758 0.384625a33.661128 33.661128 0 0 0 1.92512 3.019051l0.240765 0.361647c0.724293 0.987036 1.518517 1.910135 2.335719 2.797269 0.319688 0.349659 0.652363 0.668347 0.979044 0.996027 0.562451 0.561452 1.141885 1.088937 1.7413 1.602435 0.34866 0.297709 0.689327 0.602412 1.048975 0.873147 0.824195 0.646369 1.676363 1.24878 2.559501 1.809233 0.115887 0.067934 0.231774 0.159844 0.345662 0.229776a30.932792 30.932792 0 0 0 3.187887 1.660379c0.26674 0.119883 0.549463 0.217787 0.814205 0.332675 0.841179 0.34766 1.695344 0.658357 2.569491 0.927094l0.988035 0.28672c0.848172 0.226779 1.708332 0.405604 2.58048 0.544469 0.332675 0.053947 0.65536 0.126876 0.989034 0.170833 1.057967 0.135867 2.130919 0.21479 3.221853 0.225779 0.11289 0 0.215789 0.026974 0.320687 0.026974 0.127875 0 0.260745-0.034966 0.391618-0.034966a28.269393 28.269393 0 0 0 3.258817-0.243762l1.205823-0.211793a27.476168 27.476168 0 0 0 2.687375-0.623391c0.336671-0.099902 0.677339-0.182821 1.015009-0.292714a29.051629 29.051629 0 0 0 3.560523-1.418615c0.141861-0.069932 0.277729-0.161842 0.422587-0.227778a30.001701 30.001701 0 0 0 3.116957-1.829213c0.141861-0.093908 0.288718-0.151852 0.425584-0.251754l255.787208-176.657483c9.036176-6.236909 14.532808-17.25415 14.532808-29.121561 0-11.864414-5.496632-22.883653-14.532808-29.120562L383.900098 512.004995l215.867192-149.091403c9.036176-6.237908 14.532808-17.259145 14.532808-29.125557 0-11.862416-5.496632-22.884652-14.532808-29.121561L343.97209 127.995005c-0.187817-0.130872-0.391618-0.229776-0.580433-0.357651a30.365346 30.365346 0 0 0-4.388715-2.381674 25.027559 25.027559 0 0 0-2.781283-1.04398 26.701924 26.701924 0 0 0-5.804332-1.17785 24.070494 24.070494 0 0 0-1.840203-0.103899c-0.239766-0.00999-0.474537-0.049951-0.715302-0.049951-0.17383 0-0.344663 0.025975-0.517494 0.029971-0.589424 0.016983-1.17785 0.048952-1.765276 0.096905-0.452558 0.034966-0.908113 0.079922-1.358673 0.13287-0.497514 0.07193-0.990033 0.16384-1.480555 0.252754-0.519493 0.092909-1.041982 0.198806-1.55648 0.322684-0.415594 0.103899-0.825194 0.232773-1.241787 0.356652a27.563083 27.563083 0 0 0-1.653385 0.528484c-0.391618 0.144859-0.774244 0.319688-1.162865 0.478533-0.529483 0.217787-1.056968 0.436574-1.571465 0.694322-0.427582 0.203801-0.84018 0.445565-1.256773 0.676339-0.451559 0.249756-0.906115 0.488523-1.344687 0.762256-0.474537 0.29671-0.943079 0.628386-1.405627 0.959063-0.354654 0.248757-0.710306 0.487524-1.055969 0.749268-0.502509 0.391618-0.994029 0.802217-1.473561 1.231798-0.287719 0.252753-0.576437 0.495516-0.859161 0.756261-0.472539 0.439571-0.912109 0.91111-1.360671 1.376656-0.284722 0.300706-0.569444 0.59342-0.83918 0.908113-0.390619 0.441569-0.756261 0.904117-1.125901 1.374657-0.311696 0.395614-0.615399 0.790228-0.914107 1.195833-0.300706 0.421588-0.581432 0.853167-0.868152 1.296733a31.858888 31.858888 0 0 0-0.954069 1.544492c-0.099902 0.17383-0.213791 0.331676-0.311695 0.500511-0.131871 0.239766-0.23577 0.489522-0.361647 0.732285a36.893971 36.893971 0 0 0-2.083965 4.801311 38.562341 38.562341 0 0 0-0.941081 3.119953 36.247602 36.247602 0 0 0-0.93209 5.112008c-0.049951 0.461549-0.096905 0.926096-0.130872 1.393639a43.364652 43.364652 0 0 0-0.090911 2.043005c-0.007992 0.269737-0.041959 0.533479-0.041959 0.804215v291.894946L88.18688 304.652488c-14.39694-9.942291-33.285495-4.961155-42.184804 11.122138-8.900308 16.084293-4.441662 37.185686 9.955278 47.128976l215.874186 149.090404-215.871189 149.08441z"
    fill="#1DB584"
    p-id="3387"
  ></path>
</svg>
